<mxfile host="Electron" agent="Mozilla/5.0 (Windows NT 10.0; Win64; x64) AppleWebKit/537.36 (KHTML, like Gecko) draw.io/27.0.9 Chrome/134.0.6998.205 Electron/35.4.0 Safari/537.36" version="27.0.9">
  <diagram name="第 1 页" id="ogAzCB06w6HoRDOkrQTJ">
    <mxGraphModel dx="614" dy="428" grid="1" gridSize="10" guides="1" tooltips="1" connect="1" arrows="1" fold="1" page="1" pageScale="1" pageWidth="827" pageHeight="1169" math="0" shadow="0">
      <root>
        <mxCell id="0" />
        <mxCell id="1" parent="0" />
        <mxCell id="xdl6yvzGWxfU7ofNDEPU-9" style="edgeStyle=orthogonalEdgeStyle;rounded=0;orthogonalLoop=1;jettySize=auto;html=1;exitX=0.5;exitY=1;exitDx=0;exitDy=0;entryX=0.5;entryY=0;entryDx=0;entryDy=0;" edge="1" parent="1" source="xdl6yvzGWxfU7ofNDEPU-1" target="xdl6yvzGWxfU7ofNDEPU-6">
          <mxGeometry relative="1" as="geometry" />
        </mxCell>
        <mxCell id="xdl6yvzGWxfU7ofNDEPU-1" value="&lt;font face=&quot;Times New Roman&quot;&gt;private node k&lt;/font&gt;&lt;div&gt;&lt;font face=&quot;Times New Roman&quot;&gt;[&lt;font style=&quot;font-size: 10px;&quot;&gt;kv_addr&lt;sub style=&quot;&quot;&gt;k&lt;/sub&gt;&lt;/font&gt;]&lt;/font&gt;&lt;/div&gt;" style="rounded=1;whiteSpace=wrap;html=1;fillColor=#d5e8d4;strokeColor=#000000;strokeWidth=2;" vertex="1" parent="1">
          <mxGeometry x="70" y="80" width="80" height="40" as="geometry" />
        </mxCell>
        <mxCell id="xdl6yvzGWxfU7ofNDEPU-4" value="&lt;font face=&quot;Times New Roman&quot; style=&quot;font-size: 18px;&quot;&gt;Ori&lt;/font&gt;" style="text;html=1;align=center;verticalAlign=middle;resizable=0;points=[];autosize=1;strokeColor=none;fillColor=none;" vertex="1" parent="1">
          <mxGeometry x="85" y="26" width="50" height="40" as="geometry" />
        </mxCell>
        <mxCell id="xdl6yvzGWxfU7ofNDEPU-5" value="" style="endArrow=classic;html=1;rounded=0;" edge="1" parent="1">
          <mxGeometry width="50" height="50" relative="1" as="geometry">
            <mxPoint x="110" y="60" as="sourcePoint" />
            <mxPoint x="110" y="80" as="targetPoint" />
          </mxGeometry>
        </mxCell>
        <mxCell id="xdl6yvzGWxfU7ofNDEPU-10" style="edgeStyle=orthogonalEdgeStyle;rounded=0;orthogonalLoop=1;jettySize=auto;html=1;exitX=0.5;exitY=1;exitDx=0;exitDy=0;entryX=0.5;entryY=0;entryDx=0;entryDy=0;" edge="1" parent="1" source="xdl6yvzGWxfU7ofNDEPU-6" target="xdl6yvzGWxfU7ofNDEPU-8">
          <mxGeometry relative="1" as="geometry" />
        </mxCell>
        <mxCell id="xdl6yvzGWxfU7ofNDEPU-6" value="&lt;font face=&quot;Times New Roman&quot;&gt;node k+1&lt;/font&gt;&lt;div&gt;&lt;font face=&quot;Times New Roman&quot;&gt;[&lt;font style=&quot;font-size: 10px;&quot;&gt;kv_addr&lt;sub style=&quot;&quot;&gt;k+1&lt;/sub&gt;&lt;/font&gt;]&lt;/font&gt;&lt;/div&gt;" style="rounded=1;whiteSpace=wrap;html=1;fillColor=#d5e8d4;strokeColor=#000000;strokeWidth=2;" vertex="1" parent="1">
          <mxGeometry x="70" y="150" width="80" height="40" as="geometry" />
        </mxCell>
        <mxCell id="xdl6yvzGWxfU7ofNDEPU-7" value="&lt;font face=&quot;Times New Roman&quot;&gt;node k+3&lt;/font&gt;&lt;div&gt;&lt;font face=&quot;Times New Roman&quot;&gt;[&lt;font style=&quot;font-size: 10px;&quot;&gt;kv_addr&lt;sub style=&quot;&quot;&gt;k+3&lt;/sub&gt;&lt;/font&gt;]&lt;/font&gt;&lt;/div&gt;" style="rounded=1;whiteSpace=wrap;html=1;fillColor=#d5e8d4;strokeColor=#000000;strokeWidth=2;" vertex="1" parent="1">
          <mxGeometry x="70" y="271" width="80" height="40" as="geometry" />
        </mxCell>
        <mxCell id="xdl6yvzGWxfU7ofNDEPU-20" style="edgeStyle=orthogonalEdgeStyle;rounded=0;orthogonalLoop=1;jettySize=auto;html=1;exitX=0.5;exitY=1;exitDx=0;exitDy=0;entryX=0.5;entryY=0;entryDx=0;entryDy=0;" edge="1" parent="1" source="xdl6yvzGWxfU7ofNDEPU-8" target="xdl6yvzGWxfU7ofNDEPU-7">
          <mxGeometry relative="1" as="geometry" />
        </mxCell>
        <mxCell id="xdl6yvzGWxfU7ofNDEPU-8" value="&lt;font face=&quot;Times New Roman&quot;&gt;node k+2&lt;/font&gt;&lt;div&gt;&lt;font face=&quot;Times New Roman&quot;&gt;[&lt;font style=&quot;font-size: 10px;&quot;&gt;kv_addr&lt;sub style=&quot;&quot;&gt;k+2&lt;/sub&gt;&lt;/font&gt;]&lt;/font&gt;&lt;/div&gt;" style="rounded=1;whiteSpace=wrap;html=1;fillColor=#d5e8d4;strokeColor=#000000;strokeWidth=2;" vertex="1" parent="1">
          <mxGeometry x="70" y="211" width="80" height="40" as="geometry" />
        </mxCell>
        <mxCell id="xdl6yvzGWxfU7ofNDEPU-12" style="edgeStyle=orthogonalEdgeStyle;rounded=0;orthogonalLoop=1;jettySize=auto;html=1;exitX=0.5;exitY=1;exitDx=0;exitDy=0;entryX=0.5;entryY=0;entryDx=0;entryDy=0;" edge="1" parent="1" source="xdl6yvzGWxfU7ofNDEPU-13" target="xdl6yvzGWxfU7ofNDEPU-17">
          <mxGeometry relative="1" as="geometry" />
        </mxCell>
        <mxCell id="xdl6yvzGWxfU7ofNDEPU-13" value="&lt;font style=&quot;font-size: 12px;&quot; face=&quot;Times New Roman&quot;&gt;pri_root&lt;/font&gt;&lt;div&gt;&lt;font style=&quot;font-size: 10px;&quot;&gt;&lt;font face=&quot;Times New Roman&quot;&gt;[&lt;/font&gt;&lt;font face=&quot;Times New Roman&quot; style=&quot;&quot;&gt;kv_addr&lt;sub style=&quot;&quot;&gt;k&lt;/sub&gt;&amp;nbsp;, kv_addr&lt;sub&gt;k+1&lt;/sub&gt;,&lt;/font&gt;&lt;/font&gt;&lt;/div&gt;&lt;div&gt;&lt;font style=&quot;font-size: 10px;&quot;&gt;&lt;font face=&quot;Times New Roman&quot; style=&quot;&quot;&gt;kv_addr&lt;sub&gt;k+2&lt;/sub&gt;, kv_addr&lt;sub&gt;k+3&lt;/sub&gt;&lt;/font&gt;&lt;font face=&quot;Times New Roman&quot;&gt;]&lt;/font&gt;&lt;/font&gt;&lt;/div&gt;" style="rounded=1;whiteSpace=wrap;html=1;fillColor=#d5e8d4;strokeColor=#000000;strokeWidth=2;" vertex="1" parent="1">
          <mxGeometry x="199" y="80" width="110" height="50" as="geometry" />
        </mxCell>
        <mxCell id="xdl6yvzGWxfU7ofNDEPU-14" value="&lt;font face=&quot;Times New Roman&quot;&gt;&lt;span style=&quot;font-size: 18px;&quot;&gt;Path Compress&lt;/span&gt;&lt;/font&gt;" style="text;html=1;align=center;verticalAlign=middle;resizable=0;points=[];autosize=1;strokeColor=none;fillColor=none;" vertex="1" parent="1">
          <mxGeometry x="189" y="26" width="130" height="40" as="geometry" />
        </mxCell>
        <mxCell id="xdl6yvzGWxfU7ofNDEPU-15" value="" style="endArrow=classic;html=1;rounded=0;" edge="1" parent="1">
          <mxGeometry width="50" height="50" relative="1" as="geometry">
            <mxPoint x="254" y="60" as="sourcePoint" />
            <mxPoint x="254" y="80" as="targetPoint" />
          </mxGeometry>
        </mxCell>
        <mxCell id="xdl6yvzGWxfU7ofNDEPU-16" style="edgeStyle=orthogonalEdgeStyle;rounded=0;orthogonalLoop=1;jettySize=auto;html=1;exitX=0.5;exitY=1;exitDx=0;exitDy=0;entryX=0.5;entryY=0;entryDx=0;entryDy=0;" edge="1" parent="1" source="xdl6yvzGWxfU7ofNDEPU-17" target="xdl6yvzGWxfU7ofNDEPU-19">
          <mxGeometry relative="1" as="geometry" />
        </mxCell>
        <mxCell id="xdl6yvzGWxfU7ofNDEPU-17" value="&lt;font face=&quot;Times New Roman&quot;&gt;node k+1&lt;/font&gt;&lt;div&gt;&lt;font face=&quot;Times New Roman&quot;&gt;[&lt;span style=&quot;font-size: 10px;&quot;&gt;pri_root_addr&lt;/span&gt;]&lt;/font&gt;&lt;/div&gt;" style="rounded=1;whiteSpace=wrap;html=1;fillColor=#E6E6E6;strokeColor=#000000;strokeWidth=2;dashed=1;" vertex="1" parent="1">
          <mxGeometry x="214" y="150" width="80" height="40" as="geometry" />
        </mxCell>
        <mxCell id="xdl6yvzGWxfU7ofNDEPU-18" value="&lt;font face=&quot;Times New Roman&quot;&gt;node k+3&lt;/font&gt;&lt;div&gt;&lt;font face=&quot;Times New Roman&quot;&gt;[&lt;/font&gt;&lt;span style=&quot;font-family: &amp;quot;Times New Roman&amp;quot;; font-size: 10px; background-color: transparent; color: light-dark(rgb(0, 0, 0), rgb(255, 255, 255));&quot;&gt;pri_root_addr&lt;/span&gt;&lt;span style=&quot;font-family: &amp;quot;Times New Roman&amp;quot;; background-color: transparent; color: light-dark(rgb(0, 0, 0), rgb(255, 255, 255));&quot;&gt;]&lt;/span&gt;&lt;/div&gt;" style="rounded=1;whiteSpace=wrap;html=1;fillColor=#E6E6E6;strokeColor=#000000;strokeWidth=2;dashed=1;" vertex="1" parent="1">
          <mxGeometry x="214" y="270" width="80" height="40" as="geometry" />
        </mxCell>
        <mxCell id="xdl6yvzGWxfU7ofNDEPU-21" style="edgeStyle=orthogonalEdgeStyle;rounded=0;orthogonalLoop=1;jettySize=auto;html=1;exitX=0.5;exitY=1;exitDx=0;exitDy=0;entryX=0.5;entryY=0;entryDx=0;entryDy=0;" edge="1" parent="1" source="xdl6yvzGWxfU7ofNDEPU-19" target="xdl6yvzGWxfU7ofNDEPU-18">
          <mxGeometry relative="1" as="geometry" />
        </mxCell>
        <mxCell id="xdl6yvzGWxfU7ofNDEPU-19" value="&lt;font face=&quot;Times New Roman&quot;&gt;node k+2&lt;/font&gt;&lt;div&gt;&lt;font face=&quot;Times New Roman&quot;&gt;[&lt;/font&gt;&lt;span style=&quot;font-family: &amp;quot;Times New Roman&amp;quot;; font-size: 10px; background-color: transparent; color: light-dark(rgb(0, 0, 0), rgb(255, 255, 255));&quot;&gt;pri_root_addr&lt;/span&gt;&lt;span style=&quot;font-family: &amp;quot;Times New Roman&amp;quot;; background-color: transparent; color: light-dark(rgb(0, 0, 0), rgb(255, 255, 255));&quot;&gt;]&lt;/span&gt;&lt;/div&gt;" style="rounded=1;whiteSpace=wrap;html=1;fillColor=#E6E6E6;strokeColor=#000000;strokeWidth=2;dashed=1;" vertex="1" parent="1">
          <mxGeometry x="214" y="210" width="80" height="40" as="geometry" />
        </mxCell>
        <mxCell id="xdl6yvzGWxfU7ofNDEPU-22" style="edgeStyle=orthogonalEdgeStyle;rounded=0;orthogonalLoop=1;jettySize=auto;html=1;exitX=0.5;exitY=1;exitDx=0;exitDy=0;entryX=0.5;entryY=0;entryDx=0;entryDy=0;" edge="1" parent="1" source="xdl6yvzGWxfU7ofNDEPU-23" target="xdl6yvzGWxfU7ofNDEPU-27">
          <mxGeometry relative="1" as="geometry" />
        </mxCell>
        <mxCell id="xdl6yvzGWxfU7ofNDEPU-23" value="&lt;font style=&quot;font-size: 12px;&quot; face=&quot;Times New Roman&quot;&gt;pri_root&lt;/font&gt;&lt;div&gt;&lt;font style=&quot;font-size: 10px;&quot;&gt;&lt;font face=&quot;Times New Roman&quot;&gt;[&lt;/font&gt;&lt;font face=&quot;Times New Roman&quot; style=&quot;&quot;&gt;kv_addr&lt;sub style=&quot;&quot;&gt;k&lt;/sub&gt;&amp;nbsp;, kv_addr&lt;sub&gt;k+1&lt;/sub&gt;,&lt;/font&gt;&lt;/font&gt;&lt;/div&gt;&lt;div&gt;&lt;font style=&quot;font-size: 10px;&quot;&gt;&lt;font face=&quot;Times New Roman&quot; style=&quot;&quot;&gt;kv_addr&lt;sub&gt;k+2&lt;/sub&gt;&lt;/font&gt;&lt;font face=&quot;Times New Roman&quot;&gt;]&lt;/font&gt;&lt;/font&gt;&lt;/div&gt;" style="rounded=1;whiteSpace=wrap;html=1;fillColor=#d5e8d4;strokeColor=#000000;strokeWidth=2;" vertex="1" parent="1">
          <mxGeometry x="350" y="80" width="110" height="50" as="geometry" />
        </mxCell>
        <mxCell id="xdl6yvzGWxfU7ofNDEPU-24" value="&lt;font face=&quot;Times New Roman&quot;&gt;&lt;span style=&quot;font-size: 18px;&quot;&gt;Eviction&lt;/span&gt;&lt;/font&gt;" style="text;html=1;align=center;verticalAlign=middle;resizable=0;points=[];autosize=1;strokeColor=none;fillColor=none;" vertex="1" parent="1">
          <mxGeometry x="365" y="26" width="80" height="40" as="geometry" />
        </mxCell>
        <mxCell id="xdl6yvzGWxfU7ofNDEPU-25" value="" style="endArrow=classic;html=1;rounded=0;" edge="1" parent="1">
          <mxGeometry width="50" height="50" relative="1" as="geometry">
            <mxPoint x="405" y="60" as="sourcePoint" />
            <mxPoint x="405" y="80" as="targetPoint" />
          </mxGeometry>
        </mxCell>
        <mxCell id="xdl6yvzGWxfU7ofNDEPU-26" style="edgeStyle=orthogonalEdgeStyle;rounded=0;orthogonalLoop=1;jettySize=auto;html=1;exitX=0.5;exitY=1;exitDx=0;exitDy=0;entryX=0.5;entryY=0;entryDx=0;entryDy=0;" edge="1" parent="1" source="xdl6yvzGWxfU7ofNDEPU-27" target="xdl6yvzGWxfU7ofNDEPU-30">
          <mxGeometry relative="1" as="geometry" />
        </mxCell>
        <mxCell id="xdl6yvzGWxfU7ofNDEPU-27" value="&lt;font face=&quot;Times New Roman&quot;&gt;node k+1&lt;/font&gt;&lt;div&gt;&lt;font face=&quot;Times New Roman&quot;&gt;[&lt;/font&gt;&lt;span style=&quot;font-family: &amp;quot;Times New Roman&amp;quot;; font-size: 10px; background-color: transparent; color: light-dark(rgb(0, 0, 0), rgb(255, 255, 255));&quot;&gt;pri_root_addr&lt;/span&gt;&lt;span style=&quot;font-family: &amp;quot;Times New Roman&amp;quot;; background-color: transparent; color: light-dark(rgb(0, 0, 0), rgb(255, 255, 255));&quot;&gt;]&lt;/span&gt;&lt;/div&gt;" style="rounded=1;whiteSpace=wrap;html=1;fillColor=#E6E6E6;strokeColor=#000000;strokeWidth=2;dashed=1;" vertex="1" parent="1">
          <mxGeometry x="365" y="150" width="80" height="40" as="geometry" />
        </mxCell>
        <mxCell id="xdl6yvzGWxfU7ofNDEPU-30" value="&lt;font face=&quot;Times New Roman&quot;&gt;node k+2&lt;/font&gt;&lt;div&gt;&lt;font face=&quot;Times New Roman&quot;&gt;[&lt;/font&gt;&lt;span style=&quot;font-family: &amp;quot;Times New Roman&amp;quot;; font-size: 10px; background-color: transparent; color: light-dark(rgb(0, 0, 0), rgb(255, 255, 255));&quot;&gt;pri_root_addr&lt;/span&gt;&lt;span style=&quot;font-family: &amp;quot;Times New Roman&amp;quot;; background-color: transparent; color: light-dark(rgb(0, 0, 0), rgb(255, 255, 255));&quot;&gt;]&lt;/span&gt;&lt;/div&gt;" style="rounded=1;whiteSpace=wrap;html=1;fillColor=#E6E6E6;strokeColor=#000000;strokeWidth=2;dashed=1;" vertex="1" parent="1">
          <mxGeometry x="365" y="210" width="80" height="40" as="geometry" />
        </mxCell>
        <mxCell id="xdl6yvzGWxfU7ofNDEPU-31" value="" style="shape=flexArrow;endArrow=classic;html=1;rounded=0;fillColor=#f8cecc;strokeColor=#b85450;" edge="1" parent="1">
          <mxGeometry width="50" height="50" relative="1" as="geometry">
            <mxPoint x="160" y="200" as="sourcePoint" />
            <mxPoint x="201" y="200" as="targetPoint" />
          </mxGeometry>
        </mxCell>
        <mxCell id="xdl6yvzGWxfU7ofNDEPU-32" value="" style="shape=flexArrow;endArrow=classic;html=1;rounded=0;fillColor=#f8cecc;strokeColor=#b85450;" edge="1" parent="1">
          <mxGeometry width="50" height="50" relative="1" as="geometry">
            <mxPoint x="309" y="200" as="sourcePoint" />
            <mxPoint x="350" y="200" as="targetPoint" />
          </mxGeometry>
        </mxCell>
      </root>
    </mxGraphModel>
  </diagram>
</mxfile>
